<?xml version="1.0" standalone="no"?>
<!DOCTYPE svg PUBLIC "-//W3C//DTD SVG 20010904//EN"
 "http://www.w3.org/TR/2001/REC-SVG-20010904/DTD/svg10.dtd">
<svg version="1.0" xmlns="http://www.w3.org/2000/svg"
 width="1000.000000pt" height="1000.000000pt" viewBox="0 0 1000.000000 1000.000000"
 preserveAspectRatio="xMidYMid meet">

<g transform="translate(0.000000,1000.000000) scale(0.100000,-0.100000)"
fill="#000000" stroke="none">
<path d="M6164 7280 c-249 -142 -596 -869 -952 -1990 -45 -140 -93 -295 -107
-345 -35 -120 -82 -361 -91 -457 -7 -76 -8 -78 -33 -78 -14 -1 -66 -16 -116
-36 -162 -63 -228 -84 -267 -84 -32 0 -41 5 -59 33 -18 28 -20 43 -15 117 6
97 33 199 140 529 145 445 195 640 196 764 0 125 -39 190 -134 226 -80 29
-134 33 -201 16 -147 -39 -279 -151 -556 -471 -186 -215 -229 -252 -214 -181
4 17 27 80 51 138 60 147 84 239 91 345 13 202 -53 302 -215 325 -136 20 -251
-20 -400 -138 -115 -92 -345 -331 -619 -644 -133 -152 -256 -287 -272 -299
l-31 -21 0 23 c0 13 27 73 60 133 220 403 302 623 304 810 1 107 -12 150 -61
199 -87 86 -245 101 -383 35 -129 -62 -224 -140 -602 -498 -311 -295 -456
-373 -635 -341 -293 51 -383 269 -277 678 55 212 56 219 39 277 -28 96 -102
149 -211 150 -135 0 -197 -67 -259 -280 -49 -169 -68 -321 -62 -500 6 -188 25
-275 88 -405 60 -121 170 -231 289 -288 196 -93 475 -124 698 -77 181 38 351
126 478 249 41 39 72 67 70 61 -3 -5 -36 -86 -74 -180 -225 -551 -320 -980
-259 -1176 53 -176 286 -201 504 -56 171 114 324 290 551 632 200 302 285 418
353 479 57 51 87 63 118 47 37 -20 44 -79 35 -286 -12 -245 -10 -389 6 -444
16 -61 67 -111 112 -111 96 0 201 97 423 390 203 269 293 350 387 350 63 0 61
-32 -26 -325 -87 -292 -106 -442 -70 -548 74 -217 493 -224 787 -13 75 53 184
164 224 229 l30 46 7 -87 c19 -247 98 -354 311 -418 80 -24 300 -25 399 0 101
24 204 68 303 129 48 30 122 75 163 101 l75 46 190 10 c340 18 509 48 786 140
278 92 475 188 708 344 103 68 261 210 261 233 0 17 -29 43 -49 43 -10 0 -44
-21 -77 -46 -282 -222 -644 -384 -1034 -465 -112 -23 -181 -31 -305 -35 -88
-3 -166 -1 -172 3 -9 7 10 44 73 139 188 283 253 406 294 555 50 182 65 439
34 587 -52 254 -213 434 -445 498 -49 14 -101 18 -226 18 -146 0 -163 2 -168
17 -4 11 57 144 158 346 91 180 175 357 187 393 13 36 25 99 27 140 5 69 3 80
-26 134 -43 81 -87 134 -140 168 -58 36 -101 36 -167 -2z m346 -1679 c105 -77
131 -411 55 -677 -51 -173 -183 -398 -314 -535 -59 -61 -70 -69 -104 -69 -46
0 -146 33 -195 64 -215 135 -239 470 -62 831 112 227 276 374 450 404 71 13
139 6 170 -18z m-1040 -1173 c5 -7 35 -49 66 -93 73 -104 117 -149 184 -189
42 -25 55 -38 55 -56 0 -20 -9 -28 -49 -43 -70 -26 -183 -41 -240 -33 -35 6
-58 16 -79 38 l-30 29 6 99 c13 206 45 298 87 248z"/>
<path d="M9595 6505 c-387 -57 -752 -331 -978 -731 -31 -55 -63 -118 -73 -142
-9 -24 -19 -41 -22 -38 -9 10 105 230 153 294 l46 64 -123 -7 c-68 -3 -134
-11 -149 -16 -26 -10 -211 -202 -222 -231 -14 -37 23 -58 158 -90 72 -17 131
-31 133 -33 1 -1 -7 -27 -17 -57 l-19 -56 129 -114 c72 -62 134 -115 140 -116
5 -2 28 3 51 12 22 9 43 15 45 12 2 -2 -5 -7 -17 -11 -16 -5 -20 -13 -17 -28
3 -12 15 -69 28 -127 24 -111 39 -140 73 -140 23 0 223 176 243 214 6 12 15
81 19 153 l7 132 61 50 c247 202 410 464 471 755 16 82 21 256 6 256 -5 0 -15
2 -23 4 -7 2 -53 -2 -103 -9z m-196 -179 c-270 -154 -515 -388 -741 -708 -34
-48 -64 -86 -66 -83 -6 6 104 192 165 278 78 108 238 274 347 359 89 69 220
146 304 179 75 29 72 22 -9 -25z m-238 -326 c10 0 33 -14 51 -30 l33 -31 -39
26 c-116 75 -257 -32 -217 -166 21 -71 111 -115 183 -90 25 9 30 9 21 0 -7 -7
-36 -14 -65 -17 -58 -4 -102 17 -141 69 -45 62 -25 172 40 214 31 21 81 35
101 29 8 -2 22 -4 33 -4z m-18 -589 c-35 -30 -165 -106 -198 -116 -11 -3 -3 4
19 17 21 13 75 46 120 75 93 59 104 63 59 24z m-243 -136 c-14 -8 -29 -14 -35
-14 -5 0 1 6 15 14 14 8 30 14 35 14 6 0 -1 -6 -15 -14z"/>
<path d="M8346 5338 c-58 -16 -109 -72 -129 -144 -9 -33 -17 -73 -17 -89 l0
-29 31 30 32 29 -7 -30 c-3 -16 -9 -47 -12 -67 l-6 -36 43 5 c113 14 255 80
292 136 l16 25 -37 -18 c-20 -10 -55 -22 -78 -27 -38 -9 -41 -8 -36 10 4 17 3
18 -19 7 -13 -7 -32 -19 -41 -28 -17 -14 -18 -12 -18 39 0 67 29 119 88 159
l41 28 -31 6 c-39 8 -64 6 -112 -6z"/>
<path d="M8589 5151 c-39 -69 -142 -125 -280 -152 -35 -7 -68 -16 -72 -20 -5
-3 -3 -25 3 -48 l11 -41 32 24 c45 33 86 52 130 60 36 7 38 6 28 -13 -20 -36
-11 -39 51 -14 115 47 156 97 144 177 -11 68 -20 74 -47 27z"/>
<path d="M4957 3292 c-37 -41 -12 -86 45 -80 25 2 35 9 42 30 18 53 -50 91
-87 50z"/>
<path d="M8072 2998 l3 -303 35 0 c31 0 35 3 40 30 4 22 8 26 14 16 15 -24 90
-51 141 -51 92 0 170 55 200 139 53 150 -46 300 -198 301 -50 0 -109 -20 -139
-47 -17 -15 -18 -11 -18 100 l0 117 -40 0 -40 0 2 -302z m303 38 c57 -37 77
-142 39 -206 -56 -95 -194 -89 -247 11 -23 43 -18 119 10 157 44 60 137 78
198 38z"/>
<path d="M1100 2980 l0 -291 43 3 42 3 0 285 0 285 -42 3 -43 3 0 -291z"/>
<path d="M6905 3258 c-3 -7 -4 -137 -3 -288 l3 -275 193 -3 192 -2 0 40 0 40
-150 0 -150 0 -2 248 -3 247 -38 3 c-24 2 -39 -1 -42 -10z"/>
<path d="M4520 3175 c0 -45 0 -45 -35 -45 -33 0 -35 -2 -35 -35 0 -33 2 -35
35 -35 l35 0 0 -130 c0 -150 11 -189 62 -220 56 -34 168 -21 168 20 0 24 -25
56 -34 42 -10 -17 -68 -15 -92 2 -17 13 -19 30 -22 150 l-4 136 67 0 66 0 -3
33 c-3 32 -3 32 -65 35 l-63 3 0 44 0 45 -40 0 -40 0 0 -45z"/>
<path d="M1450 2910 l0 -221 38 3 37 3 5 142 c4 123 8 145 26 170 31 41 91 60
143 44 67 -20 75 -42 79 -214 l4 -148 36 3 37 3 0 160 c0 152 -1 162 -24 199
-46 74 -163 99 -254 53 l-46 -24 -3 21 c-2 16 -11 22 -40 24 l-38 3 0 -221z"/>
<path d="M2104 3117 c-2 -7 -3 -105 -2 -217 l3 -205 40 0 40 0 5 147 c5 138 6
148 29 172 52 55 163 57 193 3 8 -14 15 -78 18 -172 l5 -150 40 0 40 0 3 124
c4 195 -19 262 -104 297 -65 27 -167 11 -216 -33 -17 -15 -18 -14 -18 15 0 30
-2 32 -35 32 -20 0 -38 -6 -41 -13z"/>
<path d="M2866 3115 c-83 -29 -136 -109 -136 -205 0 -170 171 -272 327 -195
158 79 159 310 2 389 -60 30 -130 34 -193 11z m150 -71 c48 -23 74 -70 74
-134 0 -67 -26 -111 -79 -135 -97 -43 -201 26 -201 135 0 111 107 181 206 134z"/>
<path d="M3300 3127 c0 -2 42 -100 94 -218 l93 -214 40 -3 40 -3 63 143 c34
79 75 172 91 207 38 85 38 93 -7 89 l-37 -3 -70 -162 c-39 -90 -74 -163 -77
-163 -4 0 -38 73 -76 163 l-70 162 -42 3 c-23 2 -42 1 -42 -1z"/>
<path d="M3961 3107 c-62 -25 -69 -35 -44 -66 l18 -22 49 22 c93 41 196 7 196
-65 0 -22 -4 -23 -95 -29 -147 -10 -195 -43 -195 -135 0 -104 137 -157 253
-98 l47 23 0 -23 c0 -21 5 -24 35 -24 l35 0 0 163 c0 134 -3 168 -18 197 -38
77 -169 103 -281 57z m219 -261 c0 -79 -128 -125 -192 -68 -23 19 -23 60 -1
84 13 15 32 18 105 18 l88 0 0 -34z"/>
<path d="M4955 3118 c-3 -8 -4 -106 -3 -218 l3 -205 40 0 40 0 0 215 0 215
-38 3 c-24 2 -39 -1 -42 -10z"/>
<path d="M5386 3115 c-47 -16 -91 -57 -117 -107 -25 -48 -25 -139 0 -193 51
-112 192 -158 308 -100 158 79 159 310 2 389 -60 30 -130 34 -193 11z m150
-71 c48 -23 74 -70 74 -134 0 -65 -26 -111 -77 -135 -95 -45 -203 26 -203 135
0 111 107 181 206 134z"/>
<path d="M5910 2910 l0 -221 38 3 37 3 5 142 c4 123 8 145 26 170 31 41 91 60
143 44 67 -20 75 -42 79 -214 l4 -148 36 3 37 3 0 160 c0 152 -1 162 -24 199
-46 74 -163 99 -254 53 l-46 -24 -3 21 c-2 16 -11 22 -40 24 l-38 3 0 -221z"/>
<path d="M7521 3107 c-62 -25 -69 -35 -44 -66 l18 -22 49 22 c93 41 196 7 196
-65 0 -22 -4 -23 -95 -29 -147 -10 -195 -43 -195 -135 0 -104 137 -157 253
-98 l47 23 0 -23 c0 -21 5 -24 35 -24 l35 0 0 163 c0 138 -3 168 -18 197 -40
77 -169 103 -281 57z m219 -261 c0 -79 -128 -125 -192 -68 -23 19 -23 60 -1
84 13 15 32 18 105 18 l88 0 0 -34z"/>
</g>
</svg>
