<svg width="16" height="16" viewBox="0 0 16 16" fill="none" xmlns="http://www.w3.org/2000/svg">
<path d="M0.321999 16V5.09091H2.89302V16H0.321999ZM1.61461 3.54261C1.20742 3.54261 0.857037 3.40767 0.563477 3.13778C0.269916 2.86316 0.123136 2.53409 0.123136 2.15057C0.123136 1.76231 0.269916 1.43324 0.563477 1.16335C0.857037 0.88873 1.20742 0.75142 1.61461 0.75142C2.02654 0.75142 2.37692 0.88873 2.66575 1.16335C2.95931 1.43324 3.10609 1.76231 3.10609 2.15057C3.10609 2.53409 2.95931 2.86316 2.66575 3.13778C2.37692 3.40767 2.02654 3.54261 1.61461 3.54261ZM8.10787 9.60795V16H5.53684V5.09091H7.99423V6.9446H8.12207C8.37302 6.33381 8.77311 5.84848 9.32235 5.48864C9.87633 5.12879 10.5605 4.94886 11.3749 4.94886C12.1278 4.94886 12.7835 5.10985 13.3422 5.43182C13.9057 5.75379 14.3413 6.22017 14.6491 6.83097C14.9616 7.44176 15.1154 8.18276 15.1107 9.05398V16H12.5397V9.4517C12.5397 8.72254 12.3503 8.15199 11.9715 7.74006C11.5974 7.32812 11.079 7.12216 10.4161 7.12216C9.96629 7.12216 9.5662 7.22159 9.21582 7.42045C8.87018 7.61458 8.59792 7.89631 8.39906 8.26562C8.20493 8.63494 8.10787 9.08239 8.10787 9.60795Z" fill="black"/>
</svg>
