<svg width="18" height="18" viewBox="0 0 18 18" fill="none" xmlns="http://www.w3.org/2000/svg">
<path fill-rule="evenodd" clip-rule="evenodd" d="M13.501 0H4.50098C2.0262 0 0.000976562 2.02432 0.000976562 4.5V13.5C0.000976562 15.9748 2.0262 18 4.50098 18H13.501C15.9758 18 18.001 15.9748 18.001 13.5V4.5C18.001 2.02432 15.9758 0 13.501 0ZM9.00098 12.7499C6.92963 12.7499 5.2509 11.0704 5.2509 9C5.2509 6.92865 6.92963 5.24993 9.00098 5.24993C11.0714 5.24993 12.7511 6.92865 12.7511 9C12.7511 11.0704 11.0714 12.7499 9.00098 12.7499ZM12.7511 4.12492C12.7511 4.74615 13.2542 5.24992 13.8761 5.24992C14.498 5.24992 15.0011 4.74615 15.0011 4.12492C15.0011 3.5037 14.498 2.99992 13.8761 2.99992C13.2542 2.99992 12.7511 3.5037 12.7511 4.12492Z" fill="#0A142F"/>
</svg>
