<svg width="16" height="18" viewBox="0 0 16 18" fill="none" xmlns="http://www.w3.org/2000/svg">
<path d="M8.61113 0H10.7421C10.8971 0.790026 11.3233 1.78667 12.0713 2.77559C12.8032 3.74461 13.774 4.41972 15.0687 4.41972V6.62959C13.182 6.62959 11.7646 5.73017 10.7637 4.60867V12.1542C10.7637 13.2469 10.4481 14.3151 9.85675 15.2236C9.26544 16.1321 8.42499 16.8402 7.44168 17.2584C6.45836 17.6765 5.37635 17.7859 4.33248 17.5727C3.2886 17.3596 2.32973 16.8334 1.57714 16.0608C0.824544 15.2881 0.31202 14.3037 0.10438 13.232C-0.10326 12.1604 0.00330821 11.0495 0.410609 10.04C0.817911 9.03055 1.50765 8.16772 2.39261 7.56066C3.27757 6.9536 4.31799 6.62959 5.38232 6.62959V8.83945C4.74373 8.83945 4.11947 9.03386 3.58849 9.39809C3.05752 9.76233 2.64368 10.28 2.39929 10.8857C2.15491 11.4914 2.09097 12.1579 2.21556 12.8009C2.34014 13.4439 2.64766 14.0346 3.09921 14.4982C3.55077 14.9617 4.12609 15.2774 4.75241 15.4053C5.37874 15.5332 6.02795 15.4676 6.61793 15.2167C7.20792 14.9658 7.71219 14.541 8.06698 13.9958C8.42176 13.4507 8.61113 12.8098 8.61113 12.1542V0Z" fill="black"/>
</svg>
